name rise32.9588peak41.5061fall63.4684.mot
datacolumns 19
datarows 33
range 10.63829600000000 10.69162500000000
endheader
time	ground_force1_vx	ground_force1_vy	ground_force1_vz	ground_force1_px	ground_force1_py	ground_force1_pz	ground_force2_vx	ground_force2_vy	ground_force2_vz	ground_force2_px	ground_force2_py	ground_force2_pz	ground_torque1_x	ground_torque1_y	ground_torque1_z	ground_torque2_x	ground_torque2_y	ground_torque2_z	
10.63829600000000	7.10321900000000	707.70550500000002	43.00003800000000	0.19195500000000	0.00000000000000	0.10653200000000	0.00000000000000	0.00000000000000	0.00000000000000	0.00000000000000	0.00000000000000	0.00000000000000	0.00000000000000	15.40555300000000	0.00000000000000	0.00000000000000	0.00000000000000	0.00000000000000	
10.63997600000000	6.83593200000000	709.10766599999999	43.07249700000000	0.19125300000000	0.00000000000000	0.10646800000000	0.00000000000000	0.00000000000000	0.00000000000000	0.00000000000000	0.00000000000000	0.00000000000000	0.00000000000000	15.46885600000000	0.00000000000000	0.00000000000000	0.00000000000000	0.00000000000000	
10.64162700000000	6.56305700000000	710.55477900000005	43.14730500000000	0.19054400000000	0.00000000000000	0.10640400000000	0.00000000000000	0.00000000000000	0.00000000000000	0.00000000000000	0.00000000000000	0.00000000000000	0.00000000000000	15.53420000000000	0.00000000000000	0.00000000000000	0.00000000000000	0.00000000000000	
10.64329400000000	6.28399500000000	712.04408000000001	43.22426800000000	0.18982600000000	0.00000000000000	0.10634000000000	0.00000000000000	0.00000000000000	0.00000000000000	0.00000000000000	0.00000000000000	0.00000000000000	0.00000000000000	15.60152900000000	0.00000000000000	0.00000000000000	0.00000000000000	0.00000000000000	
10.64497800000000	5.99817000000000	713.57282899999996	43.30320000000000	0.18909900000000	0.00000000000000	0.10627700000000	0.00000000000000	0.00000000000000	0.00000000000000	0.00000000000000	0.00000000000000	0.00000000000000	0.00000000000000	15.67078800000000	0.00000000000000	0.00000000000000	0.00000000000000	0.00000000000000	
10.64662300000000	5.70502700000000	715.13831300000004	43.38391700000000	0.18836200000000	0.00000000000000	0.10621300000000	0.00000000000000	0.00000000000000	0.00000000000000	0.00000000000000	0.00000000000000	0.00000000000000	0.00000000000000	15.74192100000000	0.00000000000000	0.00000000000000	0.00000000000000	0.00000000000000	
10.64829700000000	5.40404400000000	716.73786099999995	43.46624200000000	0.18761600000000	0.00000000000000	0.10615000000000	0.00000000000000	0.00000000000000	0.00000000000000	0.00000000000000	0.00000000000000	0.00000000000000	0.00000000000000	15.81487100000000	0.00000000000000	0.00000000000000	0.00000000000000	0.00000000000000	
10.64996900000000	5.09472500000000	718.36884699999996	43.55000200000000	0.18685900000000	0.00000000000000	0.10608700000000	0.00000000000000	0.00000000000000	0.00000000000000	0.00000000000000	0.00000000000000	0.00000000000000	0.00000000000000	15.88957900000000	0.00000000000000	0.00000000000000	0.00000000000000	0.00000000000000	
10.65162300000000	4.77661000000000	720.02869999999996	43.63503000000000	0.18609200000000	0.00000000000000	0.10602400000000	0.00000000000000	0.00000000000000	0.00000000000000	0.00000000000000	0.00000000000000	0.00000000000000	0.00000000000000	15.96598400000000	0.00000000000000	0.00000000000000	0.00000000000000	0.00000000000000	
10.65329000000000	4.44927300000000	721.71491100000003	43.72116400000000	0.18531300000000	0.00000000000000	0.10596100000000	0.00000000000000	0.00000000000000	0.00000000000000	0.00000000000000	0.00000000000000	0.00000000000000	0.00000000000000	16.04402400000000	0.00000000000000	0.00000000000000	0.00000000000000	0.00000000000000	
10.65496700000000	4.11232500000000	723.42503999999997	43.80824600000000	0.18452300000000	0.00000000000000	0.10589800000000	0.00000000000000	0.00000000000000	0.00000000000000	0.00000000000000	0.00000000000000	0.00000000000000	0.00000000000000	16.12363500000000	0.00000000000000	0.00000000000000	0.00000000000000	0.00000000000000	
10.65663100000000	3.76541700000000	725.15671899999995	43.89612600000000	0.18372300000000	0.00000000000000	0.10583500000000	0.00000000000000	0.00000000000000	0.00000000000000	0.00000000000000	0.00000000000000	0.00000000000000	0.00000000000000	16.20474800000000	0.00000000000000	0.00000000000000	0.00000000000000	0.00000000000000	
10.65829100000000	3.40824300000000	726.90766099999996	43.98465800000000	0.18291000000000	0.00000000000000	0.10577200000000	0.00000000000000	0.00000000000000	0.00000000000000	0.00000000000000	0.00000000000000	0.00000000000000	0.00000000000000	16.28729500000000	0.00000000000000	0.00000000000000	0.00000000000000	0.00000000000000	
10.65996600000000	3.04053600000000	728.67566199999999	44.07370100000000	0.18208700000000	0.00000000000000	0.10570900000000	0.00000000000000	0.00000000000000	0.00000000000000	0.00000000000000	0.00000000000000	0.00000000000000	0.00000000000000	16.37120000000000	0.00000000000000	0.00000000000000	0.00000000000000	0.00000000000000	
10.66162800000000	2.66207700000000	730.45860200000004	44.16312100000000	0.18125300000000	0.00000000000000	0.10564700000000	0.00000000000000	0.00000000000000	0.00000000000000	0.00000000000000	0.00000000000000	0.00000000000000	0.00000000000000	16.45638800000000	0.00000000000000	0.00000000000000	0.00000000000000	0.00000000000000	
10.66329600000000	2.27269100000000	732.25445600000000	44.25278800000000	0.18040700000000	0.00000000000000	0.10558400000000	0.00000000000000	0.00000000000000	0.00000000000000	0.00000000000000	0.00000000000000	0.00000000000000	0.00000000000000	16.54277700000000	0.00000000000000	0.00000000000000	0.00000000000000	0.00000000000000	
10.66497300000000	1.87225100000000	734.06128699999999	44.34257800000000	0.17955100000000	0.00000000000000	0.10552100000000	0.00000000000000	0.00000000000000	0.00000000000000	0.00000000000000	0.00000000000000	0.00000000000000	0.00000000000000	16.63028400000000	0.00000000000000	0.00000000000000	0.00000000000000	0.00000000000000	
10.66663000000000	1.46067800000000	735.87725300000000	44.43237300000000	0.17868400000000	0.00000000000000	0.10545800000000	0.00000000000000	0.00000000000000	0.00000000000000	0.00000000000000	0.00000000000000	0.00000000000000	0.00000000000000	16.71881900000000	0.00000000000000	0.00000000000000	0.00000000000000	0.00000000000000	
10.66829300000000	1.03793900000000	737.70060799999999	44.52206000000000	0.17780700000000	0.00000000000000	0.10539500000000	0.00000000000000	0.00000000000000	0.00000000000000	0.00000000000000	0.00000000000000	0.00000000000000	0.00000000000000	16.80828900000000	0.00000000000000	0.00000000000000	0.00000000000000	0.00000000000000	
10.66997500000000	0.60405300000000	739.52969900000005	44.61153100000000	0.17692000000000	0.00000000000000	0.10533100000000	0.00000000000000	0.00000000000000	0.00000000000000	0.00000000000000	0.00000000000000	0.00000000000000	0.00000000000000	16.89859800000000	0.00000000000000	0.00000000000000	0.00000000000000	0.00000000000000	
10.67162300000000	0.15908700000000	741.36296800000002	44.70068300000000	0.17602400000000	0.00000000000000	0.10526800000000	0.00000000000000	0.00000000000000	0.00000000000000	0.00000000000000	0.00000000000000	0.00000000000000	0.00000000000000	16.98964500000000	0.00000000000000	0.00000000000000	0.00000000000000	0.00000000000000	
10.67329600000000	-0.29684500000000	743.19894799999997	44.78941900000000	0.17511900000000	0.00000000000000	0.10520400000000	0.00000000000000	0.00000000000000	0.00000000000000	0.00000000000000	0.00000000000000	0.00000000000000	0.00000000000000	17.08132100000000	0.00000000000000	0.00000000000000	0.00000000000000	0.00000000000000	
10.67496900000000	-0.76357600000000	745.03626399999996	44.87764600000000	0.17420500000000	0.00000000000000	0.10514000000000	0.00000000000000	0.00000000000000	0.00000000000000	0.00000000000000	0.00000000000000	0.00000000000000	0.00000000000000	17.17351800000000	0.00000000000000	0.00000000000000	0.00000000000000	0.00000000000000	
10.67662700000000	-1.24089300000000	746.87363000000005	44.96527700000000	0.17328300000000	0.00000000000000	0.10507600000000	0.00000000000000	0.00000000000000	0.00000000000000	0.00000000000000	0.00000000000000	0.00000000000000	0.00000000000000	17.26612000000000	0.00000000000000	0.00000000000000	0.00000000000000	0.00000000000000	
10.67829100000000	-1.72853600000000	748.70984299999998	45.05223000000000	0.17235300000000	0.00000000000000	0.10501200000000	0.00000000000000	0.00000000000000	0.00000000000000	0.00000000000000	0.00000000000000	0.00000000000000	0.00000000000000	17.35900600000000	0.00000000000000	0.00000000000000	0.00000000000000	0.00000000000000	
10.67996800000000	-2.22619600000000	750.54378299999996	45.13842700000000	0.17141700000000	0.00000000000000	0.10494800000000	0.00000000000000	0.00000000000000	0.00000000000000	0.00000000000000	0.00000000000000	0.00000000000000	0.00000000000000	17.45205300000000	0.00000000000000	0.00000000000000	0.00000000000000	0.00000000000000	
10.68163000000000	-2.73351900000000	752.37440600000002	45.22379500000000	0.17047400000000	0.00000000000000	0.10488300000000	0.00000000000000	0.00000000000000	0.00000000000000	0.00000000000000	0.00000000000000	0.00000000000000	0.00000000000000	17.54513200000000	0.00000000000000	0.00000000000000	0.00000000000000	0.00000000000000	
10.68329100000000	-3.25010700000000	754.20074000000000	45.30826600000000	0.16952600000000	0.00000000000000	0.10481800000000	0.00000000000000	0.00000000000000	0.00000000000000	0.00000000000000	0.00000000000000	0.00000000000000	0.00000000000000	17.63811200000000	0.00000000000000	0.00000000000000	0.00000000000000	0.00000000000000	
10.68496200000000	-3.77551900000000	756.02188300000000	45.39177800000000	0.16857200000000	0.00000000000000	0.10475300000000	0.00000000000000	0.00000000000000	0.00000000000000	0.00000000000000	0.00000000000000	0.00000000000000	0.00000000000000	17.73085400000000	0.00000000000000	0.00000000000000	0.00000000000000	0.00000000000000	
10.68662400000000	-4.30927200000000	757.83699000000001	45.47427000000000	0.16761400000000	0.00000000000000	0.10468700000000	0.00000000000000	0.00000000000000	0.00000000000000	0.00000000000000	0.00000000000000	0.00000000000000	0.00000000000000	17.82322000000000	0.00000000000000	0.00000000000000	0.00000000000000	0.00000000000000	
10.68829500000000	-4.85084400000000	759.64527499999997	45.55569000000000	0.16665100000000	0.00000000000000	0.10462200000000	0.00000000000000	0.00000000000000	0.00000000000000	0.00000000000000	0.00000000000000	0.00000000000000	0.00000000000000	17.91506400000000	0.00000000000000	0.00000000000000	0.00000000000000	0.00000000000000	
10.68996800000000	-5.39967700000000	761.44600200000002	45.63598700000000	0.16568600000000	0.00000000000000	0.10455600000000	0.00000000000000	0.00000000000000	0.00000000000000	0.00000000000000	0.00000000000000	0.00000000000000	0.00000000000000	18.00624100000000	0.00000000000000	0.00000000000000	0.00000000000000	0.00000000000000	
10.69162500000000	-5.95517700000000	763.23847599999999	45.71511600000000	0.16471700000000	0.00000000000000	0.10449000000000	0.00000000000000	0.00000000000000	0.00000000000000	0.00000000000000	0.00000000000000	0.00000000000000	0.00000000000000	18.09660000000000	0.00000000000000	0.00000000000000	0.00000000000000	0.00000000000000	
